<svg width="11.919312" height="16.000000" viewBox="0 0 11.9193 16" fill="none" xmlns="http://www.w3.org/2000/svg" xmlns:xlink="http://www.w3.org/1999/xlink">
	<desc>
			Created with Pixso.
	</desc>
	<defs>
		<clipPath id="clip190_1390">
			<rect id="pinterest-p-brands 1" width="11.919281" height="16.000000" fill="white" fill-opacity="0"/>
		</clipPath>
	</defs>
	<rect id="pinterest-p-brands 1" width="11.919281" height="16.000000" fill="#FFFFFF" fill-opacity="0"/>
	<g clip-path="url(#clip190_1390)">
		<path id="Vector" d="M6.33209 0.203125C3.14746 0.203125 0 2.34064 0 5.79999C0 8 1.22919 9.25 1.97412 9.25C2.28143 9.25 2.45837 8.38751 2.45837 8.14374C2.45837 7.85312 1.72272 7.23438 1.72272 6.02499C1.72272 3.51251 3.62231 1.73126 6.08069 1.73126C8.19452 1.73126 9.75891 2.94061 9.75891 5.16251C9.75891 6.82187 9.09778 9.93439 6.95599 9.93439C6.18311 9.93439 5.52197 9.37189 5.52197 8.56561C5.52197 7.38437 6.34143 6.24063 6.34143 5.02188C6.34143 2.95312 3.42682 3.32812 3.42682 5.82812C3.42682 6.35312 3.492 6.93439 3.72479 7.41251C3.29645 9.26874 2.42108 12.0344 2.42108 13.9469C2.42108 14.5375 2.50488 15.1187 2.56079 15.7094C2.66632 15.8281 2.61353 15.8156 2.77496 15.7563C4.33936 13.6 4.28351 13.1781 4.99121 10.3563C5.37299 11.0875 6.36005 11.4813 7.14227 11.4813C10.4387 11.4813 11.9193 8.24689 11.9193 5.33124C11.9193 2.22812 9.25604 0.203125 6.33209 0.203125Z" fill="#000000" fill-opacity="1.000000" fill-rule="nonzero"/>
	</g>
</svg>
