<svg width="44.989044" height="31.934570" viewBox="0 0 44.989 31.9346" fill="none" xmlns="http://www.w3.org/2000/svg" xmlns:xlink="http://www.w3.org/1999/xlink">
	<desc>
			Created with Pixso.
	</desc>
	<defs/>
	<path d="M30.258 27.2429L14.781 27.2429C14.5738 28.5509 13.9067 29.742 12.8997 30.6021C11.8927 31.4621 10.6118 31.9346 9.28754 31.9346C7.96323 31.9346 6.68237 31.4621 5.67535 30.6021C4.66833 29.742 4.00122 28.5509 3.79404 27.2429L1.85703 27.2429C1.36218 27.2397 0.888855 27.0404 0.540741 26.6887C0.192627 26.3371 -0.00183105 25.8618 3.05176e-05 25.3669L3.05176e-05 1.87695C-0.00210571 1.38196 0.19223 0.906342 0.540375 0.554443C0.888519 0.202545 1.36203 0.00317383 1.85703 0L27.4081 0C27.903 0.00317383 28.3763 0.202515 28.7243 0.554443C29.0723 0.906372 29.2664 1.38205 29.264 1.87695L29.264 3.78198L36.385 3.78198C36.4654 3.78165 36.5454 3.79208 36.623 3.81299C38.923 4.013 40.08 5.21289 41.3 7.2749L44.859 13.3689C44.9439 13.5135 44.9887 13.6782 44.989 13.8459L44.989 26.304C44.9901 26.5515 44.8929 26.7892 44.7187 26.9651C44.5445 27.141 44.3076 27.2406 44.06 27.2419L41.246 27.2419C41.0388 28.5499 40.3717 29.741 39.3647 30.6011C38.3577 31.4611 37.0768 31.9336 35.7525 31.9336C34.4282 31.9336 33.1474 31.4611 32.1404 30.6011C31.1333 29.741 30.4662 28.5499 30.259 27.2419L30.258 27.2429ZM32.036 26.304C32.0439 27.0369 32.2685 27.7511 32.6814 28.3567C33.0943 28.9623 33.6772 29.4322 34.3566 29.7073C35.036 29.9824 35.7817 30.0503 36.4996 29.9026C37.2176 29.7548 37.8758 29.398 38.3914 28.877C38.907 28.3559 39.2569 27.6941 39.3972 26.9746C39.5374 26.2551 39.4617 25.5103 39.1795 24.8337C38.8974 24.1572 38.4214 23.5794 37.8115 23.1729C37.2016 22.7663 36.485 22.5491 35.752 22.5488C34.7617 22.5552 33.8143 22.9543 33.1176 23.6582C32.421 24.3622 32.032 25.3136 32.036 26.304ZM5.57205 26.304C5.57993 27.0369 5.80447 27.7511 6.21741 28.3567C6.63034 28.9623 7.2132 29.4322 7.89264 29.7073C8.57205 29.9824 9.31769 30.0503 10.0356 29.9026C10.7536 29.7548 11.4118 29.398 11.9274 28.877C12.443 28.3559 12.7929 27.6941 12.9332 26.9746C13.0734 26.2551 12.9977 25.5103 12.7155 24.8337C12.4334 24.1572 11.9574 23.5794 11.3475 23.1729C10.7376 22.7663 10.021 22.5491 9.28802 22.5488C8.29749 22.5549 7.34985 22.9537 6.65302 23.6577C5.95615 24.3617 5.56705 25.3134 5.57104 26.304L5.57205 26.304ZM41.244 25.366L43.13 25.366L43.13 19.7478L40.394 19.7478C40.2714 19.7473 40.1501 19.7227 40.0371 19.6753C39.924 19.6279 39.8214 19.5586 39.7351 19.4714C39.6488 19.3843 39.5806 19.281 39.5342 19.1675C39.4879 19.054 39.4644 18.9324 39.465 18.8098L39.465 16.9629C39.4647 16.2422 39.7403 15.5488 40.235 15.0249L33.856 15.0249C33.7788 15.0248 33.7019 15.015 33.627 14.9958C32.9223 14.933 32.2668 14.6081 31.7902 14.0852C31.3135 13.5623 31.0505 12.8794 31.053 12.1719L31.053 7.47192C31.0524 7.34927 31.0759 7.22757 31.1222 7.11401C31.1685 7.00046 31.2368 6.89725 31.3231 6.81006C31.4093 6.72287 31.5119 6.6535 31.625 6.60596C31.7381 6.55841 31.8593 6.5336 31.982 6.53296L38.465 6.53296C38.1207 6.21429 37.7133 5.97122 37.2693 5.81982C36.8252 5.66843 36.3543 5.61188 35.887 5.65381L29.264 5.65381L29.264 25.3618L30.258 25.3618C30.4652 24.0538 31.1324 22.8627 32.1394 22.0027C33.1464 21.1426 34.4272 20.6702 35.7515 20.6702C37.0758 20.6702 38.3567 21.1426 39.3637 22.0027C40.3707 22.8627 41.0378 24.0538 41.245 25.3618L41.244 25.366ZM14.78 25.366L27.407 25.366L27.407 1.87598L1.85703 1.87598L1.85703 25.366L3.79404 25.366C4.00122 24.058 4.66833 22.8666 5.67535 22.0066C6.68237 21.1465 7.96323 20.6741 9.28754 20.6741C10.6118 20.6741 11.8927 21.1465 12.8997 22.0066C13.9067 22.8666 14.5738 24.058 14.781 25.366L14.78 25.366ZM41.3221 16.9658L41.3221 17.875L43.13 17.875L43.13 16.0278L42.251 16.0278C42.0042 16.0294 41.768 16.1288 41.5941 16.304C41.4202 16.4792 41.3228 16.716 41.323 16.9629L41.3221 16.9658ZM32.909 12.1738C32.908 12.4263 33.007 12.6691 33.1846 12.8486C33.3621 13.0282 33.6035 13.13 33.856 13.1318C33.9199 13.1317 33.9836 13.1384 34.0461 13.1519L42.571 13.1519L39.8051 8.41602L32.905 8.41602L32.909 12.1738ZM33.002 26.3059C32.9991 25.5733 33.2869 24.8695 33.8023 24.3489C34.3176 23.8283 35.0185 23.5333 35.751 23.5288C35.9998 23.5288 36.2384 23.6278 36.4143 23.8037C36.5902 23.9796 36.689 24.218 36.689 24.4668C36.689 24.7156 36.5902 24.9542 36.4143 25.1301C36.2384 25.306 35.9998 25.4048 35.751 25.4048C35.5727 25.4032 35.3979 25.4548 35.2489 25.5527C35.0998 25.6507 34.9832 25.7905 34.9139 25.9548C34.8445 26.1191 34.8255 26.3005 34.8594 26.4756C34.8932 26.6507 34.9783 26.8118 35.1038 26.9385C35.2293 27.0651 35.3897 27.1516 35.5645 27.187C35.7393 27.2224 35.9206 27.2051 36.0856 27.1372C36.2505 27.0693 36.3915 26.9538 36.4908 26.8057C36.59 26.6575 36.643 26.4833 36.643 26.3049C36.643 26.0587 36.7408 25.8226 36.915 25.6484C37.0891 25.4743 37.3253 25.3765 37.5715 25.3765C37.8178 25.3765 38.054 25.4743 38.2281 25.6484C38.4022 25.8226 38.5 26.0587 38.5 26.3049C38.5 27.0343 38.2103 27.7338 37.6946 28.2495C37.1788 28.7652 36.4794 29.0549 35.75 29.0549C35.0207 29.0549 34.3212 28.7652 33.8055 28.2495C33.2897 27.7338 33 27.0343 33 26.3049L33.002 26.3059ZM6.53802 26.3059C6.5351 25.5733 6.82291 24.8695 7.33829 24.3489C7.85364 23.8283 8.55447 23.5333 9.28705 23.5288C9.5358 23.5288 9.77438 23.6278 9.95032 23.8037C10.1262 23.9796 10.225 24.218 10.225 24.4668C10.225 24.7156 10.1262 24.9542 9.95032 25.1301C9.77438 25.306 9.5358 25.4048 9.28705 25.4048C9.1087 25.4032 8.9339 25.4548 8.78485 25.5527C8.63577 25.6507 8.5192 25.7905 8.44986 25.9548C8.38049 26.1191 8.36151 26.3005 8.39536 26.4756C8.42917 26.6507 8.51425 26.8118 8.6398 26.9385C8.76532 27.0651 8.92569 27.1516 9.10049 27.187C9.27527 27.2224 9.45663 27.2051 9.62158 27.1372C9.7865 27.0693 9.92752 26.9538 10.0268 26.8057C10.126 26.6575 10.179 26.4833 10.179 26.3049C10.179 26.0587 10.2769 25.8226 10.451 25.6484C10.6251 25.4743 10.8613 25.3765 11.1075 25.3765C11.3538 25.3765 11.59 25.4743 11.7641 25.6484C11.9382 25.8226 12.036 26.0587 12.036 26.3049C12.036 27.0343 11.7463 27.7338 11.2306 28.2495C10.7148 28.7652 10.0154 29.0549 9.28604 29.0549C8.55667 29.0549 7.85721 28.7652 7.34149 28.2495C6.82574 27.7338 6.53604 27.0343 6.53604 26.3049L6.53802 26.3059ZM4.68005 5.65991C4.43127 5.65991 4.19269 5.56116 4.01678 5.38525C3.84085 5.20935 3.74203 4.9707 3.74203 4.72192C3.74203 4.47314 3.84085 4.2345 4.01678 4.05859C4.19269 3.88269 4.43127 3.78394 4.68005 3.78394L24.58 3.78394C24.8288 3.78394 25.0674 3.88269 25.2433 4.05859C25.4192 4.2345 25.518 4.47314 25.518 4.72192C25.518 4.9707 25.4192 5.20935 25.2433 5.38525C25.0674 5.56116 24.8288 5.65991 24.58 5.65991L4.68005 5.65991Z" fill="#F16D7F" fill-opacity="1.000000" fill-rule="nonzero"/>
</svg>
